<?xml version="1.0" encoding="UTF-8"?>
<svg id="Layer_1" data-name="Layer 1" xmlns="http://www.w3.org/2000/svg" xmlns:xlink="http://www.w3.org/1999/xlink" viewBox="0 0 282.24 138.78">
  <defs>
    <style>
      .cls-1 {
        fill: #662d91;
      }

      .cls-1, .cls-2 {
        stroke: #662d91;
        stroke-miterlimit: 10;
        stroke-width: 2.06px;
      }

      .cls-3 {
        filter: url(#drop-shadow-1);
      }

      .cls-2 {
        fill: #27aae1;
      }
    </style>
    <filter id="drop-shadow-1" filterUnits="userSpaceOnUse">
      <feOffset dx="2" dy="9"/>
      <feGaussianBlur result="blur" stdDeviation="6"/>
      <feFlood flood-color="#000" flood-opacity=".75"/>
      <feComposite in2="blur" operator="in"/>
      <feComposite in="SourceGraphic"/>
    </filter>
  </defs>
  <g class="cls-3">
    <path class="cls-1" d="m18.2,43.76v-7.46h63.01l-3.91,5.78L25.29,118.33h56.3v7.46H11.12l3.91-5.78,52.01-76.24H18.2Z"/>
    <path class="cls-2" d="m160.6,86.58c-1.78,14.81-9.03,25.88-21.73,33.21-8.72,5.03-18.27,6.39-28.65,4.06-12.65-3.03-22.4-10.46-29.23-22.3-5.72-9.9-7.65-20.34-5.8-31.3,2.09-12.54,8.4-21.86,18.95-27.95,8.82-5.09,18.46-6.42,28.91-3.99,12.55,3.09,22.21,10.5,28.98,22.23l1.86,3.23-3.23,1.86-61.19,35.33c4.37,6.08,9.88,10.65,16.52,13.71,10.29,4.39,20,3.95,29.15-1.33,10.44-6.03,16.46-15.24,18.05-27.64l7.4.89Zm-16.9-25.54c-3.73-6.46-9.47-11.18-17.22-14.17-10.25-3.84-19.79-3.21-28.62,1.88-6.03,3.48-10.48,8.56-13.37,15.25-4.03,9.93-3.61,20.1,1.25,30.49l57.96-33.46Z"/>
    <path class="cls-2" d="m171.63,101.36v1.68c.99,10.19,8.39,15.29,22.18,15.29h3.73v7.46h-3.73c-1.99,0-3.98-.12-5.96-.37-15.66-1.61-23.55-9.63-23.67-24.05v-57.6h-15.1v-7.46h15.1V13h7.46v23.3h25.91v7.46h-25.91v57.6Z"/>
    <path class="cls-2" d="m199.91,50.66c8.2-9.57,18.27-14.35,30.2-14.35,2.11,0,4.29.19,6.52.56,11.31,1.99,20.32,8.14,27.03,18.46v-19.01h7.46v89.48h-7.46v-19.01c-1,1.49-2.11,3.05-3.36,4.66-8.2,9.57-18.27,14.35-30.2,14.35-10.19,0-19.2-3.66-27.03-11-9.32-8.95-13.98-20.19-13.98-33.74,0-11.56,3.6-21.69,10.81-30.39Zm4.47,54.43c6.71,8.83,15.29,13.24,25.73,13.24,7.95,0,15.04-2.8,21.25-8.39,8.2-7.46,12.3-17.09,12.3-28.89,0-8.95-2.61-16.96-7.83-24.05-6.71-8.82-15.29-13.24-25.73-13.24-7.95,0-15.04,2.8-21.25,8.39-8.2,7.46-12.3,17.09-12.3,28.89,0,8.95,2.61,16.96,7.83,24.05Z"/>
  </g>
</svg>